<svg width="200" height="162" viewBox="0 0 200 162" fill="none" xmlns="http://www.w3.org/2000/svg">
<path d="M196.774 19.354H187.096V16.1282C187.096 15.2728 186.756 14.4519 186.152 13.8471C185.547 13.2423 184.726 12.9024 183.87 12.9024H132.847L135.36 4.11201C135.736 2.79865 135.244 1.39168 134.131 0.598206C133.019 -0.193831 131.527 -0.199619 130.408 0.582365L100.257 21.6898C93.7014 16.0087 85.3128 12.888 76.6378 12.9024H16.129C14.3477 12.9024 12.9032 14.3468 12.9032 16.1282V19.354H3.22581C1.44442 19.354 0 20.7984 0 22.5798V158.064C0 158.919 0.339864 159.74 0.9447 160.345C1.54954 160.949 2.3704 161.289 3.22581 161.289H196.774C197.63 161.289 198.45 160.95 199.055 160.345C199.66 159.74 200 158.919 200 158.064V22.5798C200 21.7244 199.66 20.9035 199.055 20.2987C198.45 19.6938 197.63 19.354 196.774 19.354L196.774 19.354ZM180.645 19.354V138.709H123.362C121.191 138.709 119.024 138.902 116.887 139.286L134.538 121.635H134.54C135.451 120.723 135.734 119.355 135.256 118.157L129.449 103.602L134.959 95.3377C135.682 94.2533 135.682 92.842 134.959 91.7576L129.678 83.8701H167.743V77.4185H133.984L134.952 75.9827C135.676 74.8983 135.676 73.4871 134.952 72.4027L133.984 70.9669H167.743V64.5153H129.678L133.978 58.0637H167.743V51.6121H133.984L129.678 45.1605H167.743V38.7089H133.984L134.952 37.2731C135.676 36.1887 135.676 34.7774 134.952 33.693L129.32 25.2569L131.008 19.3539L180.645 19.354ZM103.225 27.4864L126.657 11.0838L122.702 24.9186C122.443 25.8288 122.596 26.808 123.122 27.5958L128.386 35.4833L123.129 43.3709C122.406 44.4553 122.406 45.8665 123.129 46.9509L128.386 54.8385L123.129 62.726C122.406 63.8104 122.406 65.2217 123.129 66.3061L128.386 74.1936L123.129 82.0812C122.406 83.1656 122.406 84.5769 123.129 85.6612L128.386 93.5488L123.129 101.436C122.535 102.318 122.414 103.435 122.806 104.423L128.467 118.578L103.225 143.827L103.225 27.4864ZM19.3543 19.354H76.6372C84.1027 19.3439 91.2946 22.1565 96.7725 27.2283V144.839C90.8219 140.836 83.8103 138.702 76.6372 138.71H19.3543V19.354ZM193.548 154.838H6.45106V25.8056H12.9027V141.935C12.9027 142.79 13.2425 143.611 13.8474 144.216C14.4522 144.821 15.2731 145.16 16.1285 145.16H76.6372C84.5477 145.139 92.1399 148.283 97.7174 153.893C97.7462 153.922 97.7851 153.932 97.8139 153.958L97.8154 153.957C98.0904 154.227 98.4116 154.446 98.7629 154.602C99.1561 154.762 99.5751 154.841 99.9985 154.838C100.854 154.835 101.673 154.495 102.28 153.893C107.857 148.283 115.449 145.139 123.36 145.16H183.869C184.724 145.16 185.545 144.821 186.15 144.216C186.755 143.611 187.094 142.79 187.094 141.935V25.8056H193.546L193.548 154.838Z" fill="#D8D8D8"/>
<path d="M38.7061 38.7085H70.9641V45.1601H38.7061V38.7085Z" fill="#D8D8D8"/>
<path d="M32.2559 51.6133H83.8688V58.0649H32.2559V51.6133Z" fill="#D8D8D8"/>
<path d="M32.2559 64.5142H83.8688V70.9658H32.2559V64.5142Z" fill="#D8D8D8"/>
<path d="M32.2559 103.225H83.8688V109.677H32.2559V103.225Z" fill="#D8D8D8"/>
<path d="M32.2559 77.4194H70.9655V83.871H32.2559V77.4194Z" fill="#D8D8D8"/>
<path d="M77.4141 38.7085H83.8657V45.1601H77.4141V38.7085Z" fill="#D8D8D8"/>
<path d="M77.4141 77.4194H83.8657V83.871H77.4141V77.4194Z" fill="#D8D8D8"/>
<path d="M32.2559 90.321H70.9655V96.7727H32.2559V90.321Z" fill="#D8D8D8"/>
<path d="M77.4141 90.321H83.8657V96.7727H77.4141V90.321Z" fill="#D8D8D8"/>
</svg>
